<svg xmlns="http://www.w3.org/2000/svg" width="1062" height="649" fill="none"><path fill="url(#a)" fill-rule="evenodd" d="M41.207 196.399c-36.24 0-54.388 43.816-28.762 69.44L146.73 400.113a100.001 100.001 0 0 0 70.708 29.286h70.693c26.52 0 51.954 10.535 70.708 29.287l161.039 161.027A100.002 100.002 0 0 0 590.585 649h388.853c72.532 0 108.862-87.698 57.562-138.985l-86.387-86.385c-19.411-19.41-5.664-52.6 21.786-52.6 27.451 0 41.201-33.189 21.787-52.599l-195.335-195.32a100.002 100.002 0 0 0-70.708-29.287H493.701a99.998 99.998 0 0 1-70.708-29.287l-35.253-35.25A100.002 100.002 0 0 0 317.032 0H81.881C30.63 0 4.966 61.963 41.206 98.2l28.762 28.759c25.626 25.624 7.478 69.44-28.762 69.44Z" clip-rule="evenodd"/><defs><linearGradient id="a" x1="-670.913" x2="-138.166" y1="323.138" y2="1335.28" gradientUnits="userSpaceOnUse"><stop stop-color="#33D35E"/><stop offset="1" stop-color="#2AB6D9"/></linearGradient></defs></svg>